<?xml version="1.0" standalone="no"?>
<!DOCTYPE svg PUBLIC "-//W3C//DTD SVG 20010904//EN"
 "http://www.w3.org/TR/2001/REC-SVG-20010904/DTD/svg10.dtd">
<svg version="1.0" xmlns="http://www.w3.org/2000/svg"
 width="175.000000pt" height="138.000000pt" viewBox="0 0 175.000000 138.000000"
 preserveAspectRatio="xMidYMid meet">
<g transform="translate(0.000000,138.000000) scale(0.100000,-0.100000)"
fill="#000000" stroke="none">
<path d="M832 1120 c-399 -105 -535 -599 -243 -889 78 -78 142 -114 247 -141
98 -25 170 -25 268 0 104 26 168 63 247 140 208 205 211 536 6 744 -76 77
-151 120 -253 146 -96 25 -177 25 -272 0z m253 -45 c92 -24 164 -64 231 -130
195 -192 189 -509 -14 -696 -161 -148 -420 -170 -597 -50 -25 17 -52 31 -59
31 -26 0 -66 26 -66 43 0 9 -4 17 -10 17 -5 0 -10 9 -10 21 0 12 -13 49 -29
83 -37 78 -55 170 -47 243 3 32 9 86 12 121 5 41 11 62 20 62 7 0 29 25 50 55
48 73 103 120 190 161 112 54 219 67 329 39z"/>
<path d="M1059 1014 c-7 -8 -29 -24 -48 -34 -33 -17 -164 -140 -149 -140 3 0
25 16 48 35 23 19 46 33 50 30 5 -3 11 -1 15 5 3 5 13 10 22 10 9 0 -4 -21
-36 -56 -28 -30 -51 -63 -51 -73 0 -9 -7 -26 -15 -37 -18 -23 -20 -125 -3
-142 14 -14 98 -17 98 -3 0 5 14 14 30 21 17 7 33 16 36 21 3 5 -19 -2 -48
-16 -35 -16 -54 -21 -59 -13 -4 6 -12 7 -18 3 -7 -4 -18 -2 -25 4 -15 12 -6
108 11 119 6 4 13 17 17 30 4 12 12 22 18 22 6 0 6 -6 -2 -15 -10 -12 -10 -15
0 -15 8 0 9 -4 3 -12 -14 -18 4 -78 23 -78 8 0 12 -4 9 -10 -4 -6 1 -7 11 -3
13 5 15 3 10 -8 -6 -11 -4 -10 6 1 9 11 26 14 62 10 44 -4 47 -7 33 -19 -10
-7 -17 -18 -17 -23 0 -6 8 0 19 13 17 21 61 34 61 18 0 -4 9 -11 20 -14 11 -4
18 -11 14 -16 -3 -5 -2 -9 3 -8 20 3 27 -2 13 -12 -13 -9 -13 -10 0 -8 26 3
44 -1 37 -7 -3 -4 0 -16 8 -28 20 -28 19 -63 -4 -87 -20 -22 -46 -17 -37 7 3
8 2 14 -3 14 -10 0 -37 61 -33 73 1 5 -3 5 -9 2 -6 -4 -24 2 -40 14 -15 11
-35 21 -43 21 -8 0 -18 5 -21 10 -3 6 -12 10 -18 10 -7 0 -6 -4 3 -10 11 -7 7
-8 -15 -4 -23 4 -35 0 -49 -15 -16 -17 -31 -21 -88 -21 -39 0 -68 4 -68 10 0
6 -9 10 -20 10 -11 0 -20 5 -20 10 0 6 -19 10 -41 10 l-41 0 36 44 c20 24 36
49 36 54 0 19 -33 22 -51 6 -17 -16 -52 -13 -47 3 6 17 -41 54 -73 59 -29 5
-38 1 -64 -27 l-30 -32 27 7 c14 3 28 2 30 -3 2 -5 10 -11 18 -13 8 -2 21 -9
28 -16 8 -7 17 -11 20 -8 3 3 -10 19 -28 34 -32 28 -30 49 4 36 15 -6 20 -18
17 -37 -1 -5 3 -6 9 -2 6 3 8 12 4 18 -3 7 5 -1 20 -18 26 -31 32 -45 18 -45
-15 0 -7 -46 11 -64 18 -18 23 -31 8 -22 -4 3 -17 -1 -27 -9 -18 -13 -18 -14
9 -20 15 -4 31 -5 34 -2 3 3 12 -1 20 -9 9 -8 21 -13 28 -10 8 3 16 -2 19 -10
4 -10 25 -14 84 -14 75 0 79 1 110 33 18 18 29 37 25 41 -11 12 77 -4 101 -18
33 -19 84 -77 91 -104 5 -21 -2 -34 -42 -74 -26 -27 -64 -56 -83 -64 -39 -16
-120 -91 -120 -110 0 -9 8 -10 33 -2 42 14 45 16 108 64 30 23 87 77 127 122
78 86 87 114 58 170 -17 31 -69 82 -84 82 -6 0 -12 5 -14 11 -2 6 -41 13 -88
15 -135 8 -130 6 -130 69 0 31 4 63 10 73 5 9 17 34 26 55 15 33 20 37 54 37
22 0 43 -7 50 -16 12 -13 19 -9 62 33 26 26 48 50 48 54 0 4 -14 15 -32 23
-41 21 -112 21 -129 0z m123 -34 c-5 -3 -11 -13 -15 -23 -4 -10 -11 -15 -17
-12 -6 3 -13 0 -16 -8 -4 -12 -11 -12 -45 -1 -29 10 -45 11 -59 4 -15 -8 -20
-8 -20 1 0 8 -5 7 -17 -2 -16 -13 -17 -12 -5 3 8 10 20 14 29 11 11 -4 14 -2
9 5 -4 7 3 14 18 18 13 3 27 12 30 20 3 9 15 13 29 10 13 -2 30 -1 37 4 14 8
55 -20 42 -30z m-452 -313 c0 -15 -20 -37 -33 -37 -4 0 -5 6 0 13 4 6 8 15 9
20 3 15 4 17 14 17 6 0 10 -6 10 -13z m58 -87 c8 -8 11 -9 7 -2 -8 17 7 15 31
-3 18 -14 17 -15 -19 -13 -21 1 -43 8 -49 15 -5 7 -14 10 -19 7 -5 -3 -9 0 -9
5 0 15 43 9 58 -9z m322 -260 c0 -5 -5 -10 -11 -10 -5 0 -7 5 -4 10 3 6 8 10
11 10 2 0 4 -4 4 -10z m-48 -36 c-5 -10 -17 -19 -27 -20 -14 -2 -13 2 6 22 25
26 36 25 21 -2z"/>
<path d="M1096 988 c3 -5 10 -6 15 -3 13 9 11 12 -6 12 -8 0 -12 -4 -9 -9z"/>
<path d="M1115 950 c3 -5 8 -10 11 -10 2 0 4 5 4 10 0 6 -5 10 -11 10 -5 0 -7
-4 -4 -10z"/>
<path d="M700 930 c-6 -11 -8 -20 -6 -20 3 0 10 9 16 20 6 11 8 20 6 20 -3 0
-10 -9 -16 -20z"/>
<path d="M924 868 l-29 -33 33 29 c30 28 37 36 29 36 -2 0 -16 -15 -33 -32z"/>
<path d="M1185 729 c-4 -6 -5 -12 -2 -15 2 -3 7 2 10 11 7 17 1 20 -8 4z"/>
<path d="M610 680 c-8 -5 -24 -10 -36 -10 -11 0 -33 -13 -49 -30 -23 -24 -25
-30 -11 -30 9 0 26 5 37 11 11 5 38 11 59 12 36 2 40 0 40 -20 0 -13 -4 -31
-9 -41 -40 -79 -40 -99 -1 -57 26 27 35 65 28 120 -2 16 -25 28 -39 19 -5 -3
-9 0 -9 5 0 6 7 11 16 11 8 0 12 5 9 10 -8 12 -16 12 -35 0z"/>
<path d="M907 639 c7 -7 15 -10 18 -7 3 3 -2 9 -12 12 -14 6 -15 5 -6 -5z"/>
<path d="M556 562 c-3 -5 1 -9 9 -9 8 0 12 4 9 9 -3 4 -7 8 -9 8 -2 0 -6 -4
-9 -8z"/>
<path d="M556 461 c-14 -15 -26 -31 -26 -35 0 -4 33 -6 73 -5 39 1 80 -1 89
-5 9 -4 21 -5 26 -2 6 3 13 -1 16 -10 4 -9 13 -14 21 -10 8 3 15 1 15 -5 0 -6
4 -8 9 -5 5 3 11 -3 14 -14 8 -30 48 -25 82 10 l29 30 -25 0 c-13 0 -30 9 -37
20 -7 12 -23 20 -38 20 -14 0 -23 4 -19 9 6 10 -35 17 -142 25 -56 4 -63 2
-87 -23z m104 -1 c11 -1 10 -3 -4 -9 -25 -10 -83 -1 -65 10 8 4 23 6 34 4 11
-2 27 -4 35 -5z m73 -13 c-3 -5 3 -6 17 -2 12 4 20 3 17 -1 -3 -5 7 -10 21
-11 14 0 31 -8 38 -17 6 -9 17 -16 24 -16 7 0 11 -3 8 -6 -4 -3 -10 -6 -15 -6
-4 0 -13 -4 -20 -9 -13 -12 -37 23 -25 36 4 5 2 5 -4 2 -10 -6 -96 22 -110 35
-3 4 8 6 25 6 17 -1 28 -5 24 -11z"/>
<path d="M1237 357 c-3 -8 1 -14 8 -14 7 0 11 6 8 14 -3 7 -6 13 -8 13 -2 0
-5 -6 -8 -13z"/>
<path d="M1286 331 c-4 -5 -2 -12 3 -15 5 -4 12 -2 15 3 4 5 2 12 -3 15 -5 4
-12 2 -15 -3z"/>
<path d="M780 230 c6 -11 13 -20 16 -20 2 0 0 9 -6 20 -6 11 -13 20 -16 20 -2
0 0 -9 6 -20z"/>
<path d="M1503 385 c0 -8 4 -12 9 -9 5 3 6 10 3 15 -9 13 -12 11 -12 -6z"/>
<path d="M1340 130 c-6 -11 -8 -20 -6 -20 3 0 10 9 16 20 6 11 8 20 6 20 -3 0
-10 -9 -16 -20z"/>
<path d="M1180 50 c-6 -11 -8 -20 -6 -20 3 0 10 9 16 20 6 11 8 20 6 20 -3 0
-10 -9 -16 -20z"/>
<path d="M1099 43 c-13 -16 -12 -17 4 -4 9 7 17 15 17 17 0 8 -8 3 -21 -13z"/>
</g>
</svg>
