<?xml version="1.0" standalone="no"?>
<!DOCTYPE svg PUBLIC "-//W3C//DTD SVG 20010904//EN"
 "http://www.w3.org/TR/2001/REC-SVG-20010904/DTD/svg10.dtd">
<svg version="1.0" xmlns="http://www.w3.org/2000/svg"
 width="295.000000pt" height="177.000000pt" viewBox="0 0 295.000000 177.000000"
 preserveAspectRatio="xMidYMid meet">
<g transform="translate(0.000000,177.000000) scale(0.100000,-0.100000)"
fill="#FFFFFF" stroke="none">
<path d="M703 1438 c-4 -7 -13 -30 -18 -52 -9 -33 -17 -41 -55 -56 -60 -23
-61 -50 -2 -70 37 -13 44 -20 54 -55 6 -22 17 -47 25 -55 11 -13 15 -13 26 0
8 8 19 33 25 55 10 35 17 42 54 55 58 20 58 47 0 69 -36 13 -44 21 -54 56 -18
61 -37 80 -55 53z m28 -28 c5 -39 29 -82 49 -87 11 -3 18 -9 15 -13 -3 -5 4
-6 15 -3 15 4 19 2 14 -10 -6 -17 -31 -30 -44 -22 -11 7 -31 -19 -33 -42 -1
-14 -9 -19 -27 -19 -18 0 -26 5 -27 19 -2 25 -22 47 -37 41 -7 -3 -21 4 -31
16 -16 18 -16 20 -2 21 10 1 22 3 27 4 6 1 17 3 26 4 9 0 12 6 8 13 -4 6 -3 8
4 4 6 -4 11 1 11 11 0 10 2 27 5 38 2 11 5 23 5 28 1 11 21 9 22 -3z m3 -218
c2 -4 0 -14 -5 -22 -8 -13 -10 -13 -18 0 -10 15 -6 30 9 30 5 0 11 -4 14 -8z"/>
<path d="M695 1326 c-22 -23 -38 -40 -36 -39 8 5 46 -28 46 -40 0 -6 7 -12 15
-12 8 0 14 5 13 12 -2 7 6 17 17 23 11 6 20 16 20 22 0 6 -11 3 -25 -6 -23
-15 -28 -15 -47 -1 -18 12 -19 15 -6 15 9 0 18 6 21 13 3 9 8 9 21 -2 11 -9
20 -11 27 -4 7 7 4 15 -7 24 -15 12 -17 12 -9 0 5 -10 4 -12 -4 -7 -6 4 -9 16
-6 27 8 24 8 24 -40 -25z"/>
<path d="M1869 1423 c-13 -16 -12 -17 4 -4 16 13 21 21 13 21 -2 0 -10 -8 -17
-17z"/>
<path d="M2394 1430 c-6 -6 -107 -15 -225 -20 -118 -5 -227 -12 -244 -15 -21
-4 -75 -50 -195 -168 -91 -89 -165 -169 -165 -177 0 -13 44 -16 315 -20 173
-3 320 -2 326 2 5 4 25 37 43 73 18 36 37 68 42 71 5 3 9 13 9 23 0 10 11 28
25 41 14 13 25 29 25 35 0 6 11 22 25 35 14 13 25 31 25 41 0 21 20 29 74 29
l43 0 7 -61 c3 -34 6 -125 7 -203 0 -78 5 -166 10 -196 6 -30 14 -84 19 -120
4 -36 11 -84 15 -107 7 -38 5 -44 -21 -68 -16 -14 -41 -32 -56 -40 -19 -11
-28 -24 -28 -41 0 -32 26 -42 50 -18 65 65 106 85 140 70 56 -25 60 -38 58
-194 -2 -78 0 -142 5 -142 4 0 7 5 7 10 0 6 5 10 10 10 6 0 10 -7 10 -15 0 -8
-5 -15 -11 -15 -5 0 -8 -4 -5 -8 3 -5 -1 -9 -9 -9 -8 0 -15 5 -15 11 0 5 -12
24 -27 40 -19 21 -21 24 -5 12 35 -30 37 -12 3 38 -17 24 -31 52 -31 61 0 8
-8 19 -17 22 -22 8 -138 -117 -120 -129 9 -6 9 -8 -1 -8 -7 0 -11 -4 -8 -8 2
-4 -4 -9 -15 -9 -14 -1 -19 5 -19 25 0 25 1 25 14 7 12 -17 14 -8 13 80 -2 93
-3 100 -22 100 -19 0 -20 -7 -20 -120 l0 -120 30 2 c21 2 44 17 78 53 27 27
50 50 52 50 1 0 22 -29 45 -65 38 -59 45 -64 74 -62 l31 2 3 154 c2 127 5 156
18 166 23 16 14 49 -14 53 -13 2 -37 17 -54 34 -21 20 -38 28 -53 25 -25 -4
-28 5 -41 163 -3 36 -10 71 -16 77 -15 18 -29 494 -16 511 7 8 7 17 -2 27 -15
18 -179 22 -196 5z m30 -19 c9 -14 -43 -43 -64 -36 -11 4 -20 11 -20 17 0 5 7
8 15 5 8 -4 17 -2 20 4 4 5 11 7 16 4 5 -4 9 -1 9 4 0 13 17 14 24 2z m36 -1
c0 -5 -2 -10 -4 -10 -3 0 -8 5 -11 10 -3 6 -1 10 4 10 6 0 11 -4 11 -10z m35
0 c-3 -5 -10 -10 -16 -10 -5 0 -9 5 -9 10 0 6 7 10 16 10 8 0 12 -4 9 -10z
m68 -3 c-2 -4 -3 -14 -3 -22 0 -8 -4 -15 -10 -15 -5 0 -10 7 -10 15 0 8 -3 14
-7 14 -17 -3 -24 2 -18 11 6 10 52 7 48 -3z m-653 -40 c0 -2 -12 -14 -27 -28
-20 -18 -24 -19 -13 -4 18 24 40 42 40 32z m430 -2 c0 -3 -19 -31 -42 -62 -24
-30 -46 -62 -50 -69 -18 -32 -28 -52 -53 -101 l-26 -53 -257 0 -257 0 135 135
135 135 185 8 c102 5 195 10 208 10 12 1 22 0 22 -3z m26 -21 c-9 -8 -16 -20
-16 -26 0 -6 -3 -9 -6 -6 -8 9 14 48 27 48 6 0 3 -7 -5 -16z m189 6 c-3 -5 -3
-16 2 -22 14 -23 13 -40 -1 -28 -7 5 -12 20 -11 33 3 26 3 27 11 27 3 0 2 -4
-1 -10z m-230 -67 c-11 -7 -15 -13 -10 -13 4 0 -2 -8 -13 -19 -12 -10 -20 -21
-17 -25 3 -3 0 -2 -6 3 -8 7 -2 18 19 39 17 17 28 33 24 38 -4 4 -1 4 7 -1 12
-7 11 -10 -4 -22z m-485 14 c0 -2 -14 -16 -32 -33 -18 -16 -26 -20 -18 -9 19
25 50 52 50 42z m-80 -80 c0 -2 -14 -16 -32 -33 -18 -16 -26 -20 -18 -9 19 25
50 52 50 42z m508 -22 c-1 -14 -6 -25 -11 -25 -4 0 -6 -4 -3 -8 3 -5 -1 -9 -9
-9 -17 0 -20 14 -4 19 5 2 12 12 14 23 5 26 4 25 10 25 3 0 4 -11 3 -25z m-35
-66 c-6 -6 -10 -17 -8 -23 3 -6 -6 -24 -19 -40 -18 -22 -23 -24 -22 -10 2 23
25 66 40 76 17 11 21 9 9 -3z m-583 -39 c0 -5 -8 -10 -17 -10 -15 0 -16 -2 -3
-9 8 -6 18 -7 24 -4 5 3 6 2 3 -4 -5 -8 -31 -10 -57 -4 -5 2 39 41 46 41 2 0
4 -4 4 -10z m85 -38 c-3 -3 -11 0 -18 7 -9 10 -8 11 6 5 10 -3 15 -9 12 -12z
m845 -153 c0 -6 -4 -7 -10 -4 -5 3 -10 11 -10 16 0 6 5 7 10 4 6 -3 10 -11 10
-16z m20 -63 c0 -19 -16 -22 -17 -3 0 6 -4 21 -9 32 -7 19 -7 19 9 3 9 -9 17
-24 17 -32z m5 -103 c0 -12 3 -24 6 -27 4 -4 5 -20 3 -37 -2 -16 0 -28 4 -25
5 3 9 -1 9 -8 0 -8 -7 -12 -15 -8 -11 4 -13 1 -7 -8 5 -8 4 -11 -3 -6 -7 4 -8
16 -4 29 7 19 7 33 3 60 0 4 -1 10 -2 15 -1 4 -5 15 -11 26 -8 14 -7 17 4 14
7 -3 13 -14 13 -25z m91 -124 c19 -22 19 -22 -3 -8 -13 8 -23 17 -23 21 0 12
6 9 26 -13z m-116 8 c0 -2 -10 -12 -22 -23 l-23 -19 19 23 c18 21 26 27 26 19z
m176 -70 c1 -15 -3 -24 -7 -21 -4 2 -5 12 -2 21 4 10 2 14 -4 10 -6 -4 -13 -1
-16 7 -4 9 0 13 11 12 11 -2 17 -13 18 -29z m-139 -163 c-3 -3 6 -17 21 -31
l27 -24 -30 17 c-16 10 -32 19 -34 20 -5 4 9 24 16 24 4 0 4 -3 0 -6z m-35
-46 c-7 -7 -12 -8 -12 -2 0 14 12 26 19 19 2 -3 -1 -11 -7 -17z"/>
<path d="M2375 1390 c-3 -5 -1 -10 4 -10 6 0 11 5 11 10 0 6 -2 10 -4 10 -3 0
-8 -4 -11 -10z"/>
<path d="M2201 1087 c-13 -21 -12 -21 5 -5 10 10 16 20 13 22 -3 3 -11 -5 -18
-17z"/>
<path d="M2411 1316 c-18 -22 -20 -388 -2 -409 18 -22 2 -41 -55 -67 -39 -18
-67 -20 -323 -20 l-281 0 0 89 c0 66 -4 92 -15 101 -12 10 -18 10 -30 0 -12
-10 -15 -37 -15 -126 0 -67 4 -115 10 -119 6 -4 149 -6 318 -5 l307 1 63 29
c66 31 82 51 64 80 -8 13 -7 21 3 31 11 11 12 23 4 54 -5 23 -7 104 -3 192 5
116 4 156 -6 168 -16 19 -24 19 -39 1z m9 -193 c-11 -17 -11 -17 -6 0 3 10 7
26 7 35 1 15 2 15 6 0 2 -10 -1 -25 -7 -35z m4 -120 c-1 -15 2 -33 8 -40 7 -9
7 -13 -1 -13 -12 0 -12 1 -16 40 -3 23 2 40 9 40 2 0 2 -12 0 -27z m23 -80 c0
-9 -4 -10 -14 -2 -7 6 -13 12 -13 14 0 1 6 2 13 2 8 0 14 -6 14 -14z m-717
-57 c0 -3 -4 -8 -10 -11 -5 -3 -10 -1 -10 4 0 6 5 11 10 11 6 0 10 -2 10 -4z
m708 -18 c-3 -11 -26 -27 -48 -33 -3 0 -19 -9 -37 -18 -20 -10 -34 -13 -38 -7
-3 6 -1 10 4 10 22 0 26 2 41 15 8 7 22 15 30 17 8 2 21 9 28 16 7 6 15 12 18
12 2 0 3 -6 2 -12z m-698 -38 c4 0 10 -7 13 -14 4 -10 1 -13 -9 -9 -7 3 -14 0
-14 -7 0 -6 -4 -9 -8 -6 -5 3 -8 15 -6 28 4 39 6 44 11 26 2 -10 8 -18 13 -18z"/>
<path d="M1240 1287 c-19 -6 -58 -34 -85 -62 -108 -108 -114 -276 -13 -390 99
-113 233 -114 335 -2 96 104 97 273 2 381 -43 49 -65 59 -56 26 3 -11 1 -17
-4 -14 -6 3 -9 15 -7 26 6 39 -95 59 -172 35z m-40 -56 c-19 -11 -34 -23 -32
-27 1 -4 -4 -9 -13 -10 -8 -1 -12 2 -9 8 8 13 66 48 79 48 6 -1 -6 -9 -25 -19z
m208 -18 c49 -39 92 -123 92 -182 0 -69 -28 -137 -76 -181 -92 -85 -213 -56
-277 64 -30 57 -30 165 0 221 59 112 175 146 261 78z m86 -52 c-5 -5 -29 24
-45 54 -6 11 2 4 19 -15 16 -19 28 -37 26 -39z m16 -21 c0 -5 -2 -10 -4 -10
-3 0 -8 5 -11 10 -3 6 -1 10 4 10 6 0 11 -4 11 -10z m-413 -82 c-3 -8 -6 -5
-6 6 -1 11 2 17 5 13 3 -3 4 -12 1 -19z m430 -60 c-3 -8 -6 -5 -6 6 -1 11 2
17 5 13 3 -3 4 -12 1 -19z m-414 -41 c3 -8 2 -20 -3 -26 -5 -9 -7 -4 -7 13 0
29 2 32 10 13z m398 -30 c-6 -8 -7 -18 -3 -22 4 -5 1 -5 -6 -1 -10 6 -10 11
-1 22 6 8 14 14 16 14 3 0 0 -6 -6 -13z m-42 -83 c-6 -7 -14 -12 -18 -9 -4 2
-14 -5 -22 -16 -20 -30 -66 -52 -75 -37 -4 7 -3 8 4 4 7 -4 32 12 59 38 26 24
51 42 56 39 4 -3 3 -11 -4 -19z m-299 6 c8 -5 11 -10 5 -10 -5 0 -17 5 -25 10
-8 5 -10 10 -5 10 6 0 17 -5 25 -10z m80 -60 c0 -5 -2 -10 -4 -10 -3 0 -8 5
-11 10 -3 6 -1 10 4 10 6 0 11 -4 11 -10z"/>
<path d="M1225 1180 c-4 -6 -1 -17 5 -25 10 -13 8 -15 -14 -15 -30 0 -47 -27
-25 -41 8 -5 28 -9 45 -9 29 0 32 -3 36 -33 3 -29 1 -33 -14 -29 -10 2 -18 -1
-18 -7 0 -6 -16 -11 -35 -11 -23 0 -38 -6 -42 -16 -8 -21 14 -34 58 -34 36 0
46 -11 63 -62 3 -10 15 -18 26 -18 11 0 20 -5 20 -11 0 -6 10 -9 23 -7 17 2
22 10 22 33 0 21 -5 30 -16 30 -33 0 -71 56 -48 71 5 3 9 25 9 49 l0 44 43 3
c34 2 42 7 42 23 0 17 -8 20 -52 23 -42 2 -56 8 -72 28 -20 25 -45 31 -56 14z
m68 -44 c33 -24 34 -32 6 -47 -15 -8 -19 -8 -15 0 4 6 2 11 -4 11 -6 0 -9 4
-6 9 4 5 -2 7 -13 4 -10 -3 -22 1 -26 8 -5 8 -4 10 3 5 7 -4 12 -2 12 4 0 6 5
8 10 5 17 -10 11 7 -7 22 -24 20 5 4 40 -21z m82 -15 c3 -5 2 -12 -3 -15 -5
-3 -9 1 -9 9 0 17 3 19 12 6z m-68 -66 c0 -8 -4 -12 -9 -9 -4 3 -8 9 -8 15 0
5 4 9 8 9 5 0 9 -7 9 -15z m-16 -54 c-9 -6 -9 -15 -2 -35 10 -25 9 -26 -9 -16
-11 6 -20 16 -20 21 0 6 -7 9 -15 5 -21 -8 -19 20 3 30 9 4 20 8 24 8 3 1 10
5 14 9 5 5 10 3 13 -4 2 -6 -2 -15 -8 -18z m35 -86 c10 -8 14 -15 8 -15 -5 0
-19 7 -30 15 -10 8 -14 15 -8 15 5 0 19 -7 30 -15z m31 -27 c-3 -8 -6 -5 -6 6
-1 11 2 17 5 13 3 -3 4 -12 1 -19z"/>
<path d="M1129 1273 c-13 -16 -12 -17 4 -4 9 7 17 15 17 17 0 8 -8 3 -21 -13z"/>
<path d="M867 1223 c-3 -4 -8 -21 -11 -38 -4 -19 -18 -36 -36 -47 -38 -21 -38
-34 0 -56 19 -11 32 -29 37 -52 11 -44 39 -52 53 -14 15 38 9 57 -19 59 -19 2
-21 0 -10 -9 18 -14 23 -43 8 -52 -7 -4 -9 -3 -6 3 3 5 0 21 -8 36 -12 24 -12
28 3 36 12 7 22 5 34 -6 16 -14 20 -14 43 1 32 21 32 33 -4 53 -18 11 -31 29
-37 52 -8 33 -36 53 -47 34z m47 -82 c9 -12 8 -13 -3 -6 -10 6 -12 4 -7 -4 5
-7 13 -10 20 -8 7 3 13 -5 14 -16 1 -17 -1 -19 -8 -7 -9 13 -10 13 -10 0 -1
-11 -4 -10 -16 5 -14 19 -16 19 -28 3 -13 -18 -56 -25 -56 -10 0 12 20 38 20
27 0 -5 5 -2 11 8 6 9 14 15 19 12 5 -3 12 0 16 6 4 8 3 9 -4 5 -7 -4 -12 -1
-12 8 0 20 24 26 29 7 2 -9 8 -22 15 -30z"/>
<path d="M810 1189 c0 -5 -4 -7 -10 -4 -14 9 -12 -1 3 -13 10 -8 13 -6 14 9 1
10 0 19 -3 19 -2 0 -4 -5 -4 -11z"/>
<path d="M733 1078 c-19 -26 -35 -100 -24 -111 10 -10 16 2 12 26 -1 8 13 10
22 1 11 -11 -26 -44 -38 -34 -8 7 -31 3 -66 -9 -74 -25 -74 -48 3 -73 55 -19
57 -20 68 -68 6 -27 18 -54 26 -61 21 -18 40 4 54 61 11 48 13 49 68 68 71 23
77 48 17 69 -22 7 -45 11 -53 8 -7 -2 -10 0 -7 5 3 6 2 10 -3 10 -5 0 -15 21
-22 47 -16 67 -36 88 -57 61z m23 -23 c-3 -8 -1 -15 5 -15 6 0 9 -7 5 -15 -3
-8 -1 -15 5 -15 6 0 8 -4 5 -9 -4 -5 -1 -11 6 -13 8 -3 6 -7 -5 -11 -10 -4
-17 -2 -17 5 0 6 -7 16 -16 22 -12 9 -13 17 -5 39 6 15 13 27 17 27 3 0 4 -7
0 -15z m40 -111 c1 -9 0 -13 -4 -10 -3 4 -7 14 -8 22 -1 9 0 13 4 10 3 -4 7
-14 8 -22z m-26 -6 c16 -20 21 -21 40 -10 22 14 60 8 60 -9 0 -6 5 -7 12 -3 7
4 8 3 4 -4 -4 -7 -15 -12 -25 -12 -10 0 -21 -3 -25 -7 -4 -4 -19 -8 -34 -10
-23 -2 -24 -1 -7 6 11 5 23 7 26 5 4 -2 10 3 13 12 3 8 11 12 17 8 7 -4 9 -3
6 4 -4 5 -13 9 -20 8 -23 -4 -75 -35 -80 -48 -3 -9 -10 -6 -22 10 -9 12 -24
22 -33 23 -12 0 -11 3 6 9 12 5 25 16 28 25 8 20 12 19 34 -7z m-86 -13 c-13
-21 -14 -25 -2 -25 22 0 73 -57 56 -63 -9 -4 -9 -6 -1 -6 7 -1 17 8 23 19 6
11 14 20 19 20 13 0 -1 -61 -15 -67 -8 -3 -14 -9 -14 -15 0 -5 6 -6 13 -2 6 4
8 3 4 -1 -4 -5 -14 -10 -22 -11 -11 -2 -12 2 -5 16 14 26 12 34 -4 20 -12 -9
-15 -8 -15 7 1 46 -15 73 -42 73 -16 0 -19 5 -14 20 4 11 2 20 -4 20 -6 0 -10
-6 -8 -12 1 -7 -7 -14 -19 -16 -13 -2 -21 2 -21 12 0 12 3 13 14 4 11 -8 12
-7 7 5 -4 12 0 15 20 13 15 -2 29 1 32 5 3 5 7 9 10 9 2 0 -3 -11 -12 -25z"/>
<path d="M2320 906 c0 -2 8 -10 18 -17 15 -13 16 -12 3 4 -13 16 -21 21 -21
13z"/>
<path d="M2466 783 c-6 -14 -5 -15 5 -6 7 7 10 15 7 18 -3 3 -9 -2 -12 -12z"/>
<path d="M1893 710 c-7 -25 -52 -50 -91 -50 -16 0 -51 -11 -78 -25 -27 -14
-63 -25 -80 -25 -31 0 -89 -24 -99 -41 -4 -5 -17 -9 -30 -9 -13 0 -27 -4 -30
-10 -3 -5 -16 -10 -27 -10 -12 0 -30 -8 -41 -17 -16 -15 -43 -19 -168 -21
l-149 -3 0 30 0 31 108 0 c94 0 120 4 191 28 79 28 120 59 106 82 -4 6 -111
10 -287 10 -274 0 -282 -1 -305 -21 -16 -16 -41 -24 -85 -28 -81 -8 -74 -26
10 -25 49 0 67 5 85 22 23 21 30 22 283 22 l259 -1 -60 -26 c-52 -23 -78 -28
-195 -32 l-135 -6 0 -55 0 -55 154 -3 c127 -2 158 0 178 13 13 9 50 24 81 34
31 10 74 28 95 40 21 11 49 21 63 21 23 0 53 10 120 42 11 5 34 8 49 6 l29 -3
-25 -11 c-13 -7 -43 -17 -66 -24 -23 -7 -54 -26 -69 -41 -15 -16 -36 -29 -45
-29 -10 0 -21 -4 -24 -10 -3 -5 -12 -10 -20 -10 -7 0 -36 -16 -65 -35 -29 -19
-57 -35 -63 -35 -6 0 -18 -6 -26 -14 -23 -20 -129 -76 -145 -76 -7 0 -19 -7
-26 -15 -10 -12 -40 -15 -149 -15 -75 0 -141 -4 -146 -9 -6 -5 -23 -11 -40
-13 -16 -2 -30 -7 -30 -13 0 -14 65 -19 78 -6 7 7 61 11 139 11 128 0 129 0
194 35 35 19 68 35 73 35 5 0 47 23 93 50 45 28 90 54 98 59 44 24 61 31 73
31 7 0 24 11 37 25 28 30 74 55 104 56 38 1 79 34 108 88 16 29 26 56 23 62
-10 16 -27 10 -32 -11z"/>
<path d="M1960 696 c0 -2 8 -10 18 -17 15 -13 16 -12 3 4 -13 16 -21 21 -21
13z"/>
<path d="M2773 635 c0 -7 6 -11 14 -8 7 3 13 6 13 8 0 2 -6 5 -13 8 -8 3 -14
-1 -14 -8z"/>
<path d="M576 593 c-3 -3 -6 -14 -6 -24 0 -13 -11 -18 -47 -22 -130 -14 -179
-32 -210 -77 -25 -36 0 -45 30 -11 17 19 40 32 64 36 21 3 52 10 69 15 17 6
45 10 62 10 l32 0 0 -62 c0 -72 17 -128 48 -161 l21 -23 -53 -32 c-64 -38
-139 -45 -162 -14 -12 16 -13 15 -22 -8 -5 -14 -8 -28 -5 -32 8 -15 145 -9
162 6 9 8 44 29 79 46 57 28 73 50 36 50 -8 0 -28 21 -44 47 -26 41 -30 56
-30 119 0 59 3 73 18 79 16 6 16 7 0 19 -10 7 -18 18 -18 24 0 14 -15 23 -24
15z"/>
<path d="M756 593 c-21 -21 2 -205 31 -248 7 -11 13 -31 13 -45 1 -33 35 -79
49 -65 7 7 6 19 -4 39 -8 16 -15 36 -15 45 0 9 -10 34 -21 56 -16 29 -23 65
-27 128 -5 83 -11 105 -26 90z"/>
<path d="M2683 525 c0 -8 4 -12 9 -9 5 3 6 10 3 15 -9 13 -12 11 -12 -6z"/>
<path d="M2586 448 c3 -5 10 -6 15 -3 13 9 11 12 -6 12 -8 0 -12 -4 -9 -9z"/>
<path d="M1289 393 c-12 -16 -12 -17 2 -6 9 7 20 9 24 5 5 -4 5 -1 1 6 -9 16
-11 15 -27 -5z"/>
<path d="M349 208 c-5 -18 -6 -38 -1 -34 7 8 12 36 6 36 -2 0 -4 -1 -5 -2z"/>
</g>
</svg>
